<svg width="24" height="24" viewBox="0 0 24 24" fill="none" xmlns="http://www.w3.org/2000/svg">
<g clip-path="url(#clip0_275_573)">
<path d="M8.28001 0.5385C8.32572 0.382993 8.42058 0.246478 8.55037 0.1494C8.68017 0.0523218 8.83793 -9.47797e-05 9.00001 1.28657e-07H15C15.1188 9.02905e-05 15.2358 0.028389 15.3415 0.0825666C15.4472 0.136744 15.5386 0.215251 15.608 0.311625C15.6774 0.407999 15.723 0.519484 15.7409 0.636901C15.7588 0.754318 15.7485 0.874311 15.711 0.987L13.041 9H18.75C18.8905 8.9999 19.0281 9.03924 19.1473 9.11355C19.2665 9.18785 19.3624 9.29413 19.4242 9.42028C19.4859 9.54643 19.511 9.68738 19.4966 9.82709C19.4821 9.96679 19.4287 10.0996 19.3425 10.2105L8.84251 23.7105C8.73495 23.8495 8.582 23.9462 8.41036 23.984C8.23873 24.0217 8.0593 23.9979 7.90339 23.9168C7.74748 23.8357 7.62499 23.7025 7.5573 23.5403C7.48961 23.3782 7.48101 23.1974 7.53301 23.0295L10.2345 14.25H5.25001C5.13341 14.2501 5.0184 14.2229 4.91411 14.1708C4.80982 14.1186 4.71913 14.0429 4.64924 13.9496C4.57934 13.8562 4.53218 13.7479 4.51148 13.6331C4.49079 13.5184 4.49713 13.4004 4.53001 13.2885L8.28001 0.5385Z" fill="#F8F8F8"/>
</g>
<defs>
<clipPath id="clip0_275_573">
<rect width="24" height="24" fill="white"/>
</clipPath>
</defs>
</svg>
