<svg width="125" height="31" viewBox="0 0 125 31" fill="none" xmlns="http://www.w3.org/2000/svg">
									<g clip-path="url(#clip0_7_198)">
										<path
											d="M38.642 6.85783C37.5309 6.85783 36.4815 7.23358 35.6482 7.89116V5.01032C35.6482 4.44668 35.2161 4.0083 34.6605 4.0083C34.105 4.0083 33.6729 4.44668 33.6729 5.01032V11.9305V15.9699C33.6729 16.5336 34.105 16.9719 34.6605 16.9719C35.2161 16.9719 35.6482 16.5336 35.6482 15.9699V11.8053C35.7099 10.177 37.037 8.89318 38.642 8.89318C40.2469 8.89318 41.5741 10.177 41.6358 11.8053V15.9699C41.6358 16.5336 42.0679 16.9719 42.6235 16.9719C43.179 16.9719 43.6111 16.5336 43.6111 15.9699V11.8053C43.5803 9.04972 41.358 6.85783 38.642 6.85783Z"
											fill="#323845"
										/>
										<path
											d="M64.6605 6.85742C61.9444 6.85742 59.7531 9.04934 59.6913 11.7736V15.9695C59.6913 16.5332 60.1234 16.9716 60.679 16.9716C61.2346 16.9716 61.6667 16.5332 61.6667 15.9695V11.8049C61.7284 10.1766 63.0555 8.89278 64.6605 8.89278C66.2654 8.89278 67.5926 10.1766 67.6543 11.8049V15.9695C67.6543 16.5332 68.0864 16.9716 68.642 16.9716C69.1975 16.9716 69.6296 16.5332 69.6296 15.9695V11.8049C69.5988 9.04934 67.3765 6.85742 64.6605 6.85742Z"
											fill="#323845"
										/>
										<path
											d="M31.0802 8.89302C31.6358 8.89302 32.0679 8.42333 32.0679 7.891C32.0679 7.32737 31.6049 6.88898 31.0802 6.88898H29.4135V5.07282C29.4135 4.50918 28.9506 4.0708 28.4259 4.0708C27.8703 4.0708 27.4382 4.5405 27.4382 5.04151V13.4647C27.4382 14.4354 27.7469 16.6587 30.7098 17.0031C30.7407 17.0031 30.8024 17.0031 30.8333 17.0031C31.0802 17.0031 31.3272 16.9092 31.5123 16.7526C31.7284 16.5647 31.8518 16.2829 31.8518 16.0011C31.8518 15.5001 31.4815 15.0617 30.9876 14.9991C29.9691 14.8738 29.4753 14.3728 29.4753 13.4961V8.89302H31.0802Z"
											fill="#323845"
										/>
										<path
											d="M89.0432 6.85742C88.7654 6.85742 88.5185 6.95136 88.3333 7.17055L87.2222 8.39177C86.821 8.79884 86.8518 9.4251 87.2222 9.83217C87.4074 10.02 87.6543 10.114 87.9321 10.114C88.179 10.114 88.4568 10.02 88.642 9.80086L89.7531 8.57964C89.9383 8.39177 90.0309 8.14126 90.0309 7.85944C90.0309 7.57762 89.9383 7.32712 89.7222 7.13924C89.5679 6.98267 89.321 6.85742 89.0432 6.85742Z"
											fill="#323845"
										/>
										<path
											d="M53.179 8.26687C52.1914 7.29616 50.8951 6.79515 49.5062 6.85777C46.9753 6.98303 44.8765 9.08101 44.7531 11.68C44.6914 13.0891 45.1852 14.4042 46.142 15.4063C47.0988 16.4083 48.3642 16.9719 49.7531 16.9719C50.8333 16.9719 51.8827 16.6275 52.7469 15.9386C52.9938 15.7507 53.1481 15.4376 53.1481 15.1244C53.1481 14.8113 53.0247 14.5295 52.7778 14.3103C52.4074 14.0285 51.9136 14.0285 51.5741 14.3103C50.9568 14.78 50.1852 14.9992 49.4136 14.9052C48.2716 14.78 47.3457 13.9659 46.9444 12.9325H53.7346C54.2901 12.9325 54.7222 12.4628 54.7222 11.9305C54.7222 10.5214 54.1667 9.23757 53.179 8.26687ZM46.9136 10.9285C47.037 10.5527 47.2531 10.2083 47.5 9.92646C48.0556 9.3002 48.8889 8.92444 49.7222 8.92444C51.0185 8.92444 52.1296 9.7699 52.5309 10.9598H46.9136V10.9285Z"
											fill="#323845"
										/>
										<path
											d="M95.0926 8.89302C95.6482 8.89302 96.0803 8.42333 96.0803 7.891C96.0803 7.32737 95.6173 6.88898 95.0926 6.88898H93.4259V5.07282C93.4259 4.50918 92.963 4.0708 92.4383 4.0708C91.8827 4.0708 91.4506 4.5405 91.4506 5.04151V13.4647C91.4506 14.4354 91.7593 16.6587 94.7222 17.0031C94.7531 17.0031 94.8148 17.0031 94.8457 17.0031C95.0926 17.0031 95.3395 16.9092 95.5247 16.7526C95.7407 16.5647 95.8642 16.2829 95.8642 16.0011C95.8642 15.5001 95.4938 15.0617 95 14.9991C93.9815 14.8738 93.4877 14.3728 93.4877 13.4961V8.89302H95.0926Z"
											fill="#323845"
										/>
										<path
											d="M79.1975 8.26687C78.2099 7.29616 76.9136 6.79515 75.5247 6.85777C72.9938 6.98303 70.895 9.08101 70.7716 11.68C70.7099 13.0891 71.2037 14.4042 72.1605 15.4063C73.1173 16.4083 74.3827 16.9719 75.7716 16.9719C76.8518 16.9719 77.9012 16.6275 78.7654 15.9386C79.0123 15.7507 79.1666 15.4376 79.1666 15.1244C79.1666 14.8113 79.0432 14.5295 78.7963 14.3103C78.4259 14.0285 77.9321 14.0285 77.5926 14.3103C76.9753 14.78 76.2037 14.9992 75.4321 14.9052C74.2901 14.78 73.3642 13.9659 72.9629 12.9325H79.7531C80.3086 12.9325 80.7407 12.4628 80.7407 11.9305C80.7407 10.5214 80.1852 9.23757 79.1975 8.26687ZM72.9321 10.9285C73.0555 10.5527 73.2716 10.2083 73.5185 9.92646C74.074 9.3002 74.9074 8.92444 75.7407 8.92444C77.037 8.92444 78.1481 9.7699 78.5494 10.9598H72.9321V10.9285Z"
											fill="#323845"
										/>
										<path
											d="M124.105 14.9051C123.086 14.7799 122.593 14.2789 122.593 13.4021V5.07282C122.593 4.50918 122.13 4.0708 121.605 4.0708C121.049 4.0708 120.617 4.5405 120.617 5.07282V7.891C119.784 7.26474 118.765 6.85767 117.623 6.85767C114.877 6.85767 112.654 9.11222 112.654 11.8991C112.654 14.686 114.877 16.9405 117.623 16.9405C119.012 16.9405 120.278 16.3455 121.173 15.4062C121.636 16.095 122.438 16.7213 123.858 16.8779C123.889 16.8779 123.951 16.8779 123.981 16.8779C124.228 16.8779 124.475 16.7839 124.66 16.6274C124.877 16.4395 125 16.1577 125 15.8759C124.969 15.4062 124.599 14.9991 124.105 14.9051ZM117.593 14.9678C115.957 14.9678 114.599 13.6213 114.599 11.9304C114.599 10.2708 115.926 8.89302 117.593 8.89302C119.228 8.89302 120.586 10.2395 120.586 11.9304C120.586 13.59 119.259 14.9678 117.593 14.9678Z"
											fill="#323845"
										/>
										<path
											d="M82.9938 7.26479C82.8395 7.0456 82.5926 6.92035 82.3148 6.88904C82.0371 6.85772 81.7901 6.92035 81.5741 7.10823C81.358 7.26479 81.2346 7.5153 81.2037 7.79712C81.1729 8.07894 81.2346 8.32944 81.4198 8.54863L84.1667 11.8052L81.1111 15.281C80.7099 15.688 80.7408 16.3143 81.1111 16.7214C81.2963 16.9092 81.5432 17.0032 81.821 17.0032C82.0988 17.0032 82.3457 16.9092 82.5309 16.69L85.4321 13.3709L88.1482 16.6274C88.3025 16.8466 88.5494 16.9719 88.8272 17.0032C88.858 17.0032 88.9198 17.0032 88.9506 17.0032C89.1667 17.0032 89.3827 16.9406 89.5679 16.784C90 16.4395 90.0617 15.782 89.7222 15.3436L82.9938 7.26479Z"
											fill="#323845"
										/>
										<path
											d="M110.525 6.91999C109.969 6.91999 109.537 7.38968 109.537 7.922V7.95332C108.704 7.29574 107.623 6.88867 106.481 6.88867C103.735 6.88867 101.512 9.14322 101.512 11.9301C101.512 14.717 103.735 16.9715 106.481 16.9715C107.623 16.9715 108.704 16.5644 109.537 15.9069V15.9382C109.537 16.5018 110 16.9402 110.525 16.9402C111.08 16.9402 111.512 16.4705 111.512 15.9382V7.922C111.512 7.35837 111.049 6.91999 110.525 6.91999ZM106.451 14.9675C104.815 14.9675 103.457 13.621 103.457 11.9301C103.457 10.2705 104.784 8.89271 106.451 8.89271C108.086 8.89271 109.444 10.2392 109.444 11.9301C109.444 13.5897 108.086 14.9675 106.451 14.9675Z"
											fill="#323845"
										/>
										<path
											d="M17.9322 4.82211C16.5741 4.82211 16.142 6.35645 15.7099 7.98474C15.0001 10.5524 15.0309 10.4271 14.321 8.95541C13.8889 8.07864 13.3025 6.82612 11.9445 6.82612C10.463 6.82612 9.96919 8.54837 9.50623 10.2393C8.76549 12.807 8.82722 12.6191 8.14821 11.21C7.68524 10.3019 7.09882 9.0807 5.7408 9.0807C4.22845 9.0807 3.73463 10.8969 3.30253 12.4938C3.27166 12.6191 2.99388 13.9655 2.8087 13.9655C2.46919 13.9655 2.03709 11.5857 2.03709 10.5211C2.03709 5.8241 5.80253 2.03523 10.4013 2.03523C11.2038 2.03523 12.0371 2.16048 12.8396 2.41098V2.4423C12.8396 3.75743 13.8889 4.82211 15.1852 4.82211C16.4815 4.82211 17.5309 3.75743 17.5309 2.4423C17.5309 1.12715 16.4815 0.0625 15.1852 0.0625C14.5988 0.0625 14.0124 0.281692 13.5803 0.688762C12.5309 0.344318 11.4815 0.156439 10.4013 0.156439C4.75314 0.156439 0.185242 4.82208 0.185242 10.5211C0.185242 12.3059 0.864255 16.1887 2.87043 16.1887C4.22845 16.1887 4.66055 14.6544 5.09265 13.0261C5.80253 10.4584 5.77166 10.5837 6.48154 12.0554C6.91364 12.9322 7.50006 14.1847 8.85808 14.1847C10.3396 14.1847 10.8334 12.4625 11.2964 10.7716C12.0371 8.20393 11.9754 8.39178 12.6544 9.80087C13.0865 10.7089 13.7038 11.9302 15.0618 11.9302C16.5741 11.9302 17.068 10.114 17.5001 8.51706C17.5309 8.39181 17.8087 7.04534 17.9939 7.04534C18.3334 7.04534 18.7655 9.42514 18.7655 10.4898C18.7655 15.1868 15.0001 18.9756 10.4013 18.9756C9.59882 18.9756 8.76549 18.8504 7.96302 18.5999V18.5686C7.96302 17.2534 6.91364 16.1887 5.61734 16.1887C4.32104 16.1887 3.27166 17.2534 3.27166 18.5686C3.27166 19.8837 4.32104 20.9797 5.61734 20.9797C6.20376 20.9797 6.79018 20.7605 7.22228 20.3534C8.27166 20.6979 9.32104 20.8857 10.4013 20.8857C16.0494 20.8857 20.6173 16.2201 20.6173 10.5211C20.6173 8.70491 19.9383 4.82211 17.9322 4.82211ZM15.1852 1.62816C15.6173 1.62816 15.9568 1.9726 15.9568 2.41098C15.9568 2.84937 15.6173 3.19383 15.1852 3.19383C14.7531 3.19383 14.4136 2.84937 14.4136 2.41098C14.4136 1.9726 14.7531 1.62816 15.1852 1.62816ZM5.61734 19.3514C5.18524 19.3514 4.84574 19.007 4.84574 18.5686C4.84574 18.1302 5.18524 17.7857 5.61734 17.7857C6.04944 17.7857 6.38895 18.1302 6.38895 18.5686C6.38895 19.007 6.04944 19.3514 5.61734 19.3514Z"
											fill="#323845"
										/>
										<path
											d="M23.1827 29.1513C22.7975 29.1513 22.4494 29.0612 22.1382 28.8808C21.8321 28.6954 21.5876 28.4449 21.4049 28.1293C21.2271 27.8137 21.1382 27.4579 21.1382 27.0621C21.1382 26.6663 21.2197 26.3131 21.3827 26.0025C21.5506 25.6869 21.7778 25.4389 22.0642 25.2585C22.3506 25.0731 22.674 24.9804 23.0345 24.9804C23.3259 24.9804 23.595 25.0431 23.8419 25.1683C24.0889 25.2886 24.2963 25.4539 24.4642 25.6643V23.6352C24.4642 23.52 24.4987 23.4273 24.5679 23.3572C24.6419 23.287 24.7333 23.252 24.8419 23.252C24.9555 23.252 25.0469 23.287 25.116 23.3572C25.1852 23.4273 25.2197 23.52 25.2197 23.6352V27.0621C25.2197 27.4579 25.1284 27.8137 24.9457 28.1293C24.7679 28.4449 24.5259 28.6954 24.2197 28.8808C23.9136 29.0612 23.5679 29.1513 23.1827 29.1513ZM23.1827 28.475C23.4345 28.475 23.6592 28.4149 23.8568 28.2946C24.0543 28.1694 24.2098 27.999 24.3234 27.7836C24.437 27.5682 24.4938 27.3277 24.4938 27.0621C24.4938 26.7916 24.437 26.5511 24.3234 26.3407C24.2098 26.1303 24.0543 25.9649 23.8568 25.8447C23.6592 25.7194 23.4345 25.6568 23.1827 25.6568C22.9358 25.6568 22.7111 25.7194 22.5086 25.8447C22.3111 25.9649 22.1531 26.1303 22.0345 26.3407C21.921 26.5511 21.8642 26.7916 21.8642 27.0621C21.8642 27.3277 21.921 27.5682 22.0345 27.7836C22.1531 27.999 22.3111 28.1694 22.5086 28.2946C22.7111 28.4149 22.9358 28.475 23.1827 28.475ZM27.0429 29.1213C26.9342 29.1213 26.8429 29.0862 26.7688 29.0161C26.6997 28.9409 26.6651 28.8482 26.6651 28.738V25.3938C26.6651 25.2785 26.6997 25.1859 26.7688 25.1157C26.8429 25.0456 26.9342 25.0105 27.0429 25.0105C27.1565 25.0105 27.2478 25.0456 27.3169 25.1157C27.3861 25.1859 27.4207 25.2785 27.4207 25.3938V28.738C27.4207 28.8482 27.3861 28.9409 27.3169 29.0161C27.2478 29.0862 27.1565 29.1213 27.0429 29.1213ZM27.0429 24.3417C26.9095 24.3417 26.7935 24.2941 26.6947 24.1989C26.6009 24.0987 26.554 23.9809 26.554 23.8457C26.554 23.7104 26.6009 23.5951 26.6947 23.5C26.7935 23.3998 26.9095 23.3497 27.0429 23.3497C27.1762 23.3497 27.2898 23.3998 27.3836 23.5C27.4824 23.5951 27.5318 23.7104 27.5318 23.8457C27.5318 23.9809 27.4824 24.0987 27.3836 24.1989C27.2898 24.2941 27.1762 24.3417 27.0429 24.3417ZM30.5522 29.1513C30.1818 29.1513 29.8534 29.0637 29.567 28.8883C29.2855 28.708 29.0633 28.4625 28.9003 28.1518C28.7374 27.8362 28.6559 27.4755 28.6559 27.0697C28.6559 26.6588 28.7423 26.2981 28.9152 25.9875C29.0929 25.6718 29.3349 25.4263 29.6411 25.251C29.9473 25.0706 30.3003 24.9804 30.7003 24.9804C31.0953 24.9804 31.446 25.0706 31.7521 25.251C32.0583 25.4263 32.2978 25.6718 32.4707 25.9875C32.6484 26.2981 32.7373 26.6588 32.7373 27.0697H32.3003C32.3003 27.4755 32.2237 27.8362 32.0707 28.1518C31.9225 28.4625 31.7176 28.708 31.4558 28.8883C31.1941 29.0637 30.8929 29.1513 30.5522 29.1513ZM30.6855 30.8272C30.3349 30.8272 30.0065 30.7571 29.7003 30.6168C29.3942 30.4765 29.1349 30.2711 28.9226 30.0006C28.8584 29.9154 28.8337 29.8277 28.8485 29.7375C28.8682 29.6473 28.9176 29.5747 28.9966 29.5196C29.0855 29.4595 29.1769 29.4394 29.2707 29.4595C29.3695 29.4795 29.4485 29.5296 29.5078 29.6098C29.6411 29.7801 29.809 29.9129 30.0115 30.0081C30.2139 30.1033 30.4436 30.1509 30.7003 30.1509C30.9373 30.1509 31.1546 30.0932 31.3521 29.978C31.5546 29.8628 31.7151 29.6924 31.8336 29.467C31.9521 29.2415 32.0114 28.966 32.0114 28.6403V27.5732L32.2558 26.9118L32.7373 27.0697V28.6929C32.7373 29.0887 32.6509 29.4469 32.4781 29.7676C32.3052 30.0932 32.0632 30.3513 31.7521 30.5417C31.446 30.732 31.0904 30.8272 30.6855 30.8272ZM30.7003 28.475C30.9571 28.475 31.1842 28.4149 31.3818 28.2946C31.5793 28.1744 31.7324 28.009 31.841 27.7986C31.9546 27.5882 32.0114 27.3452 32.0114 27.0697C32.0114 26.7941 31.9546 26.5511 31.841 26.3407C31.7324 26.1252 31.5793 25.9574 31.3818 25.8372C31.1842 25.7169 30.9571 25.6568 30.7003 25.6568C30.4436 25.6568 30.2164 25.7169 30.0189 25.8372C29.8213 25.9574 29.6658 26.1252 29.5522 26.3407C29.4386 26.5511 29.3818 26.7941 29.3818 27.0697C29.3818 27.3452 29.4386 27.5882 29.5522 27.7986C29.6658 28.009 29.8213 28.1744 30.0189 28.2946C30.2164 28.4149 30.4436 28.475 30.7003 28.475ZM34.3509 29.1213C34.2423 29.1213 34.1509 29.0862 34.0768 29.0161C34.0077 28.9409 33.9731 28.8482 33.9731 28.738V25.3938C33.9731 25.2785 34.0077 25.1859 34.0768 25.1157C34.1509 25.0456 34.2423 25.0105 34.3509 25.0105C34.4645 25.0105 34.5558 25.0456 34.625 25.1157C34.6941 25.1859 34.7287 25.2785 34.7287 25.3938V28.738C34.7287 28.8482 34.6941 28.9409 34.625 29.0161C34.5558 29.0862 34.4645 29.1213 34.3509 29.1213ZM34.3509 24.3417C34.2176 24.3417 34.1015 24.2941 34.0028 24.1989C33.9089 24.0987 33.862 23.9809 33.862 23.8457C33.862 23.7104 33.9089 23.5951 34.0028 23.5C34.1015 23.3998 34.2176 23.3497 34.3509 23.3497C34.4842 23.3497 34.5978 23.3998 34.6916 23.5C34.7904 23.5951 34.8398 23.7104 34.8398 23.8457C34.8398 23.9809 34.7904 24.0987 34.6916 24.1989C34.5978 24.2941 34.4842 24.3417 34.3509 24.3417ZM37.6453 29.1213C37.3984 29.1213 37.1762 29.0587 36.9787 28.9334C36.7811 28.8031 36.6256 28.6278 36.512 28.4073C36.3984 28.1869 36.3416 27.9389 36.3416 27.6633V24.0786C36.3416 23.9684 36.3762 23.8782 36.4453 23.8081C36.5145 23.7379 36.6034 23.7029 36.712 23.7029C36.8207 23.7029 36.9095 23.7379 36.9787 23.8081C37.0478 23.8782 37.0824 23.9684 37.0824 24.0786V27.6633C37.0824 27.8638 37.1367 28.0316 37.2453 28.1669C37.354 28.3021 37.4873 28.3698 37.6453 28.3698H37.8972C37.9861 28.3698 38.0602 28.4048 38.1194 28.475C38.1836 28.5451 38.2157 28.6353 38.2157 28.7455C38.2157 28.8558 38.1737 28.9459 38.0898 29.0161C38.0108 29.0862 37.9071 29.1213 37.7787 29.1213H37.6453ZM36.0009 25.8071C35.8972 25.8071 35.8132 25.777 35.749 25.7169C35.6849 25.6568 35.6528 25.5817 35.6528 25.4915C35.6528 25.3913 35.6849 25.3111 35.749 25.251C35.8132 25.1909 35.8972 25.1608 36.0009 25.1608H37.712C37.8157 25.1608 37.8997 25.1909 37.9639 25.251C38.0281 25.3111 38.0602 25.3913 38.0602 25.4915C38.0602 25.5817 38.0281 25.6568 37.9639 25.7169C37.8997 25.777 37.8157 25.8071 37.712 25.8071H36.0009ZM40.87 29.1513C40.5095 29.1513 40.1861 29.0612 39.8997 28.8808C39.6132 28.6954 39.3861 28.4474 39.2182 28.1368C39.0552 27.8212 38.9737 27.4654 38.9737 27.0697C38.9737 26.6739 39.0626 26.3181 39.2404 26.0025C39.4231 25.6869 39.6676 25.4389 39.9737 25.2585C40.2848 25.0731 40.633 24.9804 41.0182 24.9804C41.4034 24.9804 41.749 25.0731 42.0552 25.2585C42.3614 25.4389 42.6034 25.6869 42.7811 26.0025C42.9639 26.3181 43.0552 26.6739 43.0552 27.0697H42.7663C42.7663 27.4654 42.6824 27.8212 42.5145 28.1368C42.3515 28.4474 42.1268 28.6954 41.8404 28.8808C41.554 29.0612 41.2305 29.1513 40.87 29.1513ZM41.0182 28.475C41.27 28.475 41.4947 28.4149 41.6923 28.2946C41.8898 28.1694 42.0453 28.0015 42.1589 27.7911C42.2725 27.5757 42.3293 27.3352 42.3293 27.0697C42.3293 26.7991 42.2725 26.5586 42.1589 26.3482C42.0453 26.1328 41.8898 25.9649 41.6923 25.8447C41.4947 25.7194 41.27 25.6568 41.0182 25.6568C40.7713 25.6568 40.5466 25.7194 40.3441 25.8447C40.1466 25.9649 39.9886 26.1328 39.87 26.3482C39.7565 26.5586 39.6997 26.7991 39.6997 27.0697C39.6997 27.3352 39.7565 27.5757 39.87 27.7911C39.9886 28.0015 40.1466 28.1694 40.3441 28.2946C40.5466 28.4149 40.7713 28.475 41.0182 28.475ZM42.6774 29.1288C42.5688 29.1288 42.4774 29.0937 42.4034 29.0236C42.3342 28.9484 42.2997 28.8558 42.2997 28.7455V27.5957L42.4404 26.7991L43.0552 27.0697V28.7455C43.0552 28.8558 43.0182 28.9484 42.9441 29.0236C42.875 29.0937 42.7861 29.1288 42.6774 29.1288ZM45.1799 29.1213C44.9626 29.1213 44.77 29.0612 44.6021 28.9409C44.4342 28.8207 44.3034 28.6579 44.2095 28.4524C44.1157 28.242 44.0688 28.0015 44.0688 27.731V23.6277C44.0688 23.5175 44.1034 23.4273 44.1725 23.3572C44.2416 23.287 44.3305 23.252 44.4392 23.252C44.5478 23.252 44.6367 23.287 44.7058 23.3572C44.775 23.4273 44.8095 23.5175 44.8095 23.6277V27.731C44.8095 27.9164 44.8441 28.0692 44.9132 28.1894C44.9824 28.3097 45.0713 28.3698 45.1799 28.3698H45.3651C45.4639 28.3698 45.5429 28.4048 45.6021 28.475C45.6663 28.5451 45.6984 28.6353 45.6984 28.7455C45.6984 28.8558 45.6515 28.9459 45.5577 29.0161C45.4639 29.0862 45.3429 29.1213 45.1947 29.1213H45.1799ZM50.3707 29.1513C50.0102 29.1513 49.6867 29.0612 49.4003 28.8808C49.1139 28.6954 48.8867 28.4474 48.7188 28.1368C48.5558 27.8212 48.4744 27.4654 48.4744 27.0697C48.4744 26.6739 48.5632 26.3181 48.741 26.0025C48.9237 25.6869 49.1682 25.4389 49.4744 25.2585C49.7855 25.0731 50.1336 24.9804 50.5188 24.9804C50.904 24.9804 51.2497 25.0731 51.5558 25.2585C51.862 25.4389 52.104 25.6869 52.2818 26.0025C52.4645 26.3181 52.5558 26.6739 52.5558 27.0697H52.2669C52.2669 27.4654 52.183 27.8212 52.0151 28.1368C51.8521 28.4474 51.6274 28.6954 51.341 28.8808C51.0546 29.0612 50.7311 29.1513 50.3707 29.1513ZM50.5188 28.475C50.7707 28.475 50.9953 28.4149 51.1929 28.2946C51.3904 28.1694 51.546 28.0015 51.6595 27.7911C51.7731 27.5757 51.8299 27.3352 51.8299 27.0697C51.8299 26.7991 51.7731 26.5586 51.6595 26.3482C51.546 26.1328 51.3904 25.9649 51.1929 25.8447C50.9953 25.7194 50.7707 25.6568 50.5188 25.6568C50.2719 25.6568 50.0472 25.7194 49.8447 25.8447C49.6472 25.9649 49.4892 26.1328 49.3707 26.3482C49.2571 26.5586 49.2003 26.7991 49.2003 27.0697C49.2003 27.3352 49.2571 27.5757 49.3707 27.7911C49.4892 28.0015 49.6472 28.1694 49.8447 28.2946C50.0472 28.4149 50.2719 28.475 50.5188 28.475ZM52.1781 29.1288C52.0694 29.1288 51.9781 29.0937 51.904 29.0236C51.8349 28.9484 51.8003 28.8558 51.8003 28.7455V27.5957L51.941 26.7991L52.5558 27.0697V28.7455C52.5558 28.8558 52.5188 28.9484 52.4447 29.0236C52.3756 29.0937 52.2867 29.1288 52.1781 29.1288ZM55.4065 29.1513C55.0361 29.1513 54.7077 29.0637 54.4213 28.8883C54.1398 28.708 53.9176 28.4625 53.7546 28.1518C53.5916 27.8362 53.5102 27.4755 53.5102 27.0697C53.5102 26.6588 53.5966 26.2981 53.7694 25.9875C53.9472 25.6718 54.1892 25.4263 54.4953 25.251C54.8015 25.0706 55.1546 24.9804 55.5546 24.9804C55.9497 24.9804 56.3003 25.0706 56.6065 25.251C56.9126 25.4263 57.1521 25.6718 57.325 25.9875C57.5028 26.2981 57.5916 26.6588 57.5916 27.0697H57.1546C57.1546 27.4755 57.0781 27.8362 56.925 28.1518C56.7768 28.4625 56.5719 28.708 56.3102 28.8883C56.0484 29.0637 55.7472 29.1513 55.4065 29.1513ZM55.5398 30.8272C55.1892 30.8272 54.8608 30.7571 54.5546 30.6168C54.2484 30.4765 53.9892 30.2711 53.7768 30.0006C53.7126 29.9154 53.6879 29.8277 53.7027 29.7375C53.7225 29.6473 53.7719 29.5747 53.8509 29.5196C53.9398 29.4595 54.0311 29.4394 54.125 29.4595C54.2237 29.4795 54.3027 29.5296 54.362 29.6098C54.4953 29.7801 54.6632 29.9129 54.8657 30.0081C55.0682 30.1033 55.2978 30.1509 55.5546 30.1509C55.7916 30.1509 56.0089 30.0932 56.2065 29.978C56.4089 29.8628 56.5694 29.6924 56.6879 29.467C56.8065 29.2415 56.8657 28.966 56.8657 28.6403V27.5732L57.1102 26.9118L57.5916 27.0697V28.6929C57.5916 29.0887 57.5052 29.4469 57.3324 29.7676C57.1595 30.0932 56.9176 30.3513 56.6065 30.5417C56.3003 30.732 55.9447 30.8272 55.5398 30.8272ZM55.5546 28.475C55.8114 28.475 56.0386 28.4149 56.2361 28.2946C56.4336 28.1744 56.5867 28.009 56.6953 27.7986C56.8089 27.5882 56.8657 27.3452 56.8657 27.0697C56.8657 26.7941 56.8089 26.5511 56.6953 26.3407C56.5867 26.1252 56.4336 25.9574 56.2361 25.8372C56.0386 25.7169 55.8114 25.6568 55.5546 25.6568C55.2978 25.6568 55.0707 25.7169 54.8731 25.8372C54.6756 25.9574 54.52 26.1252 54.4065 26.3407C54.2929 26.5511 54.2361 26.7941 54.2361 27.0697C54.2361 27.3452 54.2929 27.5882 54.4065 27.7986C54.52 28.009 54.6756 28.1744 54.8731 28.2946C55.0707 28.4149 55.2978 28.475 55.5546 28.475ZM60.6568 29.1513C60.2469 29.1513 59.8815 29.0637 59.5605 28.8883C59.2444 28.708 58.995 28.4625 58.8123 28.1518C58.6345 27.8362 58.5457 27.4755 58.5457 27.0697C58.5457 26.6588 58.6296 26.2981 58.7975 25.9875C58.9703 25.6718 59.2074 25.4263 59.5086 25.251C59.8098 25.0706 60.1555 24.9804 60.5457 24.9804C60.9308 24.9804 61.2617 25.0681 61.5382 25.2435C61.8148 25.4138 62.0247 25.6518 62.1679 25.9574C62.316 26.258 62.3901 26.6062 62.3901 27.002C62.3901 27.0972 62.358 27.1774 62.2938 27.2425C62.2296 27.3026 62.1481 27.3327 62.0494 27.3327H59.0642V26.7315H62.0271L61.7234 26.9419C61.7185 26.6914 61.6691 26.4684 61.5753 26.273C61.4815 26.0726 61.3481 25.9148 61.1753 25.7996C61.0024 25.6844 60.7926 25.6267 60.5457 25.6267C60.2642 25.6267 60.0222 25.6894 59.8197 25.8146C59.6222 25.9399 59.4716 26.1127 59.3679 26.3332C59.2642 26.5486 59.2123 26.7941 59.2123 27.0697C59.2123 27.3452 59.274 27.5907 59.3975 27.8061C59.521 28.0216 59.6913 28.1919 59.9086 28.3172C60.1259 28.4424 60.3753 28.505 60.6568 28.505C60.8099 28.505 60.9654 28.4775 61.1234 28.4224C61.2864 28.3623 61.4173 28.2946 61.516 28.2195C61.5901 28.1644 61.6691 28.1368 61.7531 28.1368C61.8419 28.1318 61.9185 28.1568 61.9827 28.212C62.0666 28.2871 62.1111 28.3698 62.116 28.46C62.121 28.5501 62.0815 28.6278 61.9975 28.6929C61.8296 28.8282 61.6197 28.9384 61.3679 29.0236C61.121 29.1088 60.8839 29.1513 60.6568 29.1513ZM66.8129 29.1288C66.7043 29.1288 66.6129 29.0937 66.5389 29.0236C66.4697 28.9484 66.4352 28.8558 66.4352 28.7455V26.8968C66.4352 26.6112 66.3833 26.3783 66.2796 26.1979C66.1759 26.0175 66.0352 25.8848 65.8574 25.7996C65.6845 25.7094 65.4845 25.6643 65.2574 25.6643C65.05 25.6643 64.8623 25.7069 64.6944 25.7921C64.5265 25.8772 64.3932 25.9925 64.2944 26.1378C64.1956 26.2781 64.1463 26.4409 64.1463 26.6263H63.6796C63.6796 26.3106 63.7537 26.0301 63.9018 25.7846C64.0549 25.5341 64.2623 25.3362 64.524 25.1909C64.7858 25.0456 65.0796 24.9729 65.4055 24.9729C65.7463 24.9729 66.05 25.0481 66.3166 25.1984C66.5882 25.3437 66.8006 25.5591 66.9537 25.8447C67.1117 26.1303 67.1907 26.481 67.1907 26.8968V28.7455C67.1907 28.8558 67.1537 28.9484 67.0796 29.0236C67.0105 29.0937 66.9216 29.1288 66.8129 29.1288ZM63.7685 29.1288C63.6599 29.1288 63.5685 29.0937 63.4944 29.0236C63.4253 28.9484 63.3907 28.8558 63.3907 28.7455V25.3938C63.3907 25.2785 63.4253 25.1859 63.4944 25.1157C63.5685 25.0456 63.6599 25.0105 63.7685 25.0105C63.8821 25.0105 63.9734 25.0456 64.0426 25.1157C64.1117 25.1859 64.1463 25.2785 64.1463 25.3938V28.7455C64.1463 28.8558 64.1117 28.9484 64.0426 29.0236C63.9734 29.0937 63.8821 29.1288 63.7685 29.1288ZM70.3142 29.1513C69.9191 29.1513 69.566 29.0612 69.2549 28.8808C68.9487 28.6954 68.7068 28.4474 68.529 28.1368C68.3561 27.8212 68.2697 27.4654 68.2697 27.0697C68.2697 26.6638 68.3561 26.3031 68.529 25.9875C68.7018 25.6718 68.9389 25.4263 69.2401 25.251C69.5413 25.0706 69.887 24.9804 70.2771 24.9804C70.5685 24.9804 70.8352 25.0381 71.0771 25.1533C71.3191 25.2635 71.5364 25.4313 71.729 25.6568C71.7981 25.737 71.8228 25.8196 71.8031 25.9048C71.7833 25.99 71.729 26.0651 71.6401 26.1303C71.571 26.1804 71.4944 26.1979 71.4105 26.1829C71.3265 26.1628 71.25 26.1177 71.1808 26.0476C70.9389 25.7871 70.6376 25.6568 70.2771 25.6568C70.0253 25.6568 69.8031 25.7169 69.6105 25.8372C69.4179 25.9524 69.2673 26.1152 69.1586 26.3257C69.05 26.5361 68.9957 26.7841 68.9957 27.0697C68.9957 27.3402 69.05 27.5807 69.1586 27.7911C69.2722 28.0015 69.4277 28.1694 69.6253 28.2946C69.8228 28.4149 70.0524 28.475 70.3142 28.475C70.487 28.475 70.6376 28.4549 70.766 28.4149C70.8994 28.3698 71.0203 28.3021 71.129 28.212C71.208 28.1468 71.2895 28.1118 71.3734 28.1067C71.4574 28.0967 71.5315 28.1193 71.5956 28.1744C71.6796 28.2445 71.7265 28.3247 71.7364 28.4149C71.7463 28.5 71.7166 28.5777 71.6475 28.6478C71.2919 28.9835 70.8475 29.1513 70.3142 29.1513ZM73.6889 30.9249C73.6395 30.9249 73.5802 30.9099 73.5111 30.8798C73.2938 30.7796 73.2345 30.6218 73.3333 30.4064L75.5926 25.2284C75.6913 25.018 75.8469 24.9579 76.0592 25.0481C76.2815 25.1433 76.3432 25.3011 76.2444 25.5215L73.9778 30.692C73.9185 30.8473 73.8222 30.9249 73.6889 30.9249ZM74.5629 28.956C74.4691 28.996 74.3802 29.001 74.2963 28.971C74.2173 28.9359 74.1531 28.8708 74.1037 28.7756L72.4074 25.5065C72.358 25.4113 72.3506 25.3211 72.3852 25.236C72.4247 25.1458 72.4913 25.0806 72.5852 25.0406C72.679 25.0005 72.7679 24.998 72.8518 25.033C72.9358 25.0631 73 25.1257 73.0444 25.2209L74.6666 28.49C74.716 28.5852 74.7333 28.6779 74.7185 28.7681C74.7086 28.8532 74.6568 28.9159 74.5629 28.956ZM76.9262 30.4214C76.8669 30.4214 76.82 30.4014 76.7855 30.3613C76.7558 30.3212 76.741 30.2761 76.741 30.226C76.741 30.1258 76.7682 30.0381 76.8225 29.963C76.8818 29.8928 76.9385 29.8152 76.9929 29.73C77.0521 29.6448 77.0818 29.5421 77.0818 29.4219C77.0818 29.3367 77.062 29.2666 77.0225 29.2115C76.983 29.1564 76.9386 29.1063 76.8892 29.0612C76.8398 29.0111 76.7953 28.956 76.7558 28.8958C76.7163 28.8357 76.6966 28.7606 76.6966 28.6704C76.6966 28.5351 76.741 28.4224 76.8299 28.3322C76.9188 28.242 77.0398 28.1969 77.1929 28.1969C77.3805 28.1969 77.5213 28.2621 77.6151 28.3923C77.7139 28.5226 77.7657 28.6979 77.7707 28.9184C77.7707 29.0787 77.7435 29.2465 77.6892 29.4219C77.6398 29.5972 77.5707 29.7601 77.4818 29.9104C77.3978 30.0607 77.3065 30.1834 77.2077 30.2786C77.1089 30.3738 77.0151 30.4214 76.9262 30.4214ZM81.4157 26.5511C81.4157 26.2505 81.4873 25.9825 81.6305 25.747C81.7787 25.5065 81.9762 25.3161 82.2231 25.1758C82.47 25.0356 82.7416 24.9654 83.0379 24.9654C83.3342 24.9654 83.554 25.0155 83.6972 25.1157C83.8453 25.2109 83.9021 25.3261 83.8676 25.4614C83.8527 25.5315 83.8231 25.5867 83.7787 25.6267C83.7392 25.6618 83.6923 25.6844 83.6379 25.6944C83.5836 25.7044 83.5244 25.7019 83.4602 25.6869C83.1441 25.6217 82.8602 25.6167 82.6083 25.6718C82.3565 25.7269 82.1565 25.8297 82.0083 25.98C81.8651 26.1303 81.7935 26.3206 81.7935 26.5511H81.4157ZM81.4231 29.1213C81.3046 29.1213 81.2132 29.0912 81.149 29.0311C81.0848 28.966 81.0527 28.8708 81.0527 28.7455V25.3863C81.0527 25.266 81.0848 25.1733 81.149 25.1082C81.2132 25.0431 81.3046 25.0105 81.4231 25.0105C81.5466 25.0105 81.6379 25.0431 81.6972 25.1082C81.7614 25.1683 81.7935 25.261 81.7935 25.3863V28.7455C81.7935 28.8658 81.7614 28.9585 81.6972 29.0236C81.6379 29.0887 81.5466 29.1213 81.4231 29.1213ZM86.2993 29.1513C85.8895 29.1513 85.524 29.0637 85.2031 28.8883C84.887 28.708 84.6376 28.4625 84.4549 28.1518C84.2771 27.8362 84.1882 27.4755 84.1882 27.0697C84.1882 26.6588 84.2722 26.2981 84.4401 25.9875C84.6129 25.6718 84.85 25.4263 85.1512 25.251C85.4524 25.0706 85.7981 24.9804 86.1882 24.9804C86.5734 24.9804 86.9043 25.0681 87.1808 25.2435C87.4574 25.4138 87.6673 25.6518 87.8105 25.9574C87.9586 26.258 88.0327 26.6062 88.0327 27.002C88.0327 27.0972 88.0006 27.1774 87.9364 27.2425C87.8722 27.3026 87.7907 27.3327 87.6919 27.3327H84.7068V26.7315H87.6697L87.366 26.9419C87.3611 26.6914 87.3117 26.4684 87.2179 26.273C87.124 26.0726 86.9907 25.9148 86.8179 25.7996C86.645 25.6844 86.4352 25.6267 86.1882 25.6267C85.9068 25.6267 85.6648 25.6894 85.4623 25.8146C85.2648 25.9399 85.1142 26.1127 85.0105 26.3332C84.9068 26.5486 84.8549 26.7941 84.8549 27.0697C84.8549 27.3452 84.9166 27.5907 85.0401 27.8061C85.1636 28.0216 85.3339 28.1919 85.5512 28.3172C85.7685 28.4424 86.0179 28.505 86.2993 28.505C86.4524 28.505 86.608 28.4775 86.766 28.4224C86.929 28.3623 87.0599 28.2946 87.1586 28.2195C87.2327 28.1644 87.3117 28.1368 87.3956 28.1368C87.4845 28.1318 87.5611 28.1568 87.6253 28.212C87.7092 28.2871 87.7537 28.3698 87.7586 28.46C87.7636 28.5501 87.724 28.6278 87.6401 28.6929C87.4722 28.8282 87.2623 28.9384 87.0105 29.0236C86.7635 29.1088 86.5265 29.1513 86.2993 29.1513ZM90.5777 29.1513C90.2172 29.1513 89.8938 29.0612 89.6074 28.8808C89.321 28.6954 89.0938 28.4474 88.9259 28.1368C88.7629 27.8212 88.6814 27.4654 88.6814 27.0697C88.6814 26.6739 88.7703 26.3181 88.9481 26.0025C89.1308 25.6869 89.3753 25.4389 89.6814 25.2585C89.9926 25.0731 90.3407 24.9804 90.7259 24.9804C91.1111 24.9804 91.4568 25.0731 91.7629 25.2585C92.0691 25.4389 92.3111 25.6869 92.4889 26.0025C92.6716 26.3181 92.7629 26.6739 92.7629 27.0697H92.474C92.474 27.4654 92.3901 27.8212 92.2222 28.1368C92.0592 28.4474 91.8345 28.6954 91.5481 28.8808C91.2617 29.0612 90.9382 29.1513 90.5777 29.1513ZM90.7259 28.475C90.9777 28.475 91.2024 28.4149 91.4 28.2946C91.5975 28.1694 91.7531 28.0015 91.8666 27.7911C91.9802 27.5757 92.037 27.3352 92.037 27.0697C92.037 26.7991 91.9802 26.5586 91.8666 26.3482C91.7531 26.1328 91.5975 25.9649 91.4 25.8447C91.2024 25.7194 90.9777 25.6568 90.7259 25.6568C90.479 25.6568 90.2543 25.7194 90.0518 25.8447C89.8543 25.9649 89.6963 26.1328 89.5777 26.3482C89.4642 26.5586 89.4074 26.7991 89.4074 27.0697C89.4074 27.3352 89.4642 27.5757 89.5777 27.7911C89.6963 28.0015 89.8543 28.1694 90.0518 28.2946C90.2543 28.4149 90.479 28.475 90.7259 28.475ZM92.3852 29.1288C92.2765 29.1288 92.1852 29.0937 92.1111 29.0236C92.0419 28.9484 92.0074 28.8558 92.0074 28.7455V27.5957L92.1481 26.7991L92.7629 27.0697V28.7455C92.7629 28.8558 92.7259 28.9484 92.6518 29.0236C92.5827 29.0937 92.4938 29.1288 92.3852 29.1288ZM94.8873 29.1213C94.67 29.1213 94.4774 29.0612 94.3095 28.9409C94.1416 28.8207 94.0108 28.6579 93.9169 28.4524C93.8231 28.242 93.7762 28.0015 93.7762 27.731V23.6277C93.7762 23.5175 93.8108 23.4273 93.8799 23.3572C93.949 23.287 94.0379 23.252 94.1466 23.252C94.2552 23.252 94.3441 23.287 94.4132 23.3572C94.4824 23.4273 94.5169 23.5175 94.5169 23.6277V27.731C94.5169 27.9164 94.5515 28.0692 94.6207 28.1894C94.6898 28.3097 94.7787 28.3698 94.8873 28.3698H95.0725C95.1713 28.3698 95.2503 28.4048 95.3095 28.475C95.3737 28.5451 95.4058 28.6353 95.4058 28.7455C95.4058 28.8558 95.3589 28.9459 95.2651 29.0161C95.1713 29.0862 95.0503 29.1213 94.9021 29.1213H94.8873ZM98.8413 29.1213C98.7327 29.1213 98.6413 29.0862 98.5673 29.0161C98.4981 28.9409 98.4636 28.8482 98.4636 28.738V25.3938C98.4636 25.2785 98.4981 25.1859 98.5673 25.1157C98.6413 25.0456 98.7327 25.0105 98.8413 25.0105C98.9549 25.0105 99.0463 25.0456 99.1154 25.1157C99.1845 25.1859 99.2191 25.2785 99.2191 25.3938V28.738C99.2191 28.8482 99.1845 28.9409 99.1154 29.0161C99.0463 29.0862 98.9549 29.1213 98.8413 29.1213ZM98.8413 24.3417C98.708 24.3417 98.5919 24.2941 98.4932 24.1989C98.3994 24.0987 98.3524 23.9809 98.3524 23.8457C98.3524 23.7104 98.3994 23.5951 98.4932 23.5C98.5919 23.3998 98.708 23.3497 98.8413 23.3497C98.9747 23.3497 99.0882 23.3998 99.1821 23.5C99.2808 23.5951 99.3302 23.7104 99.3302 23.8457C99.3302 23.9809 99.2808 24.0987 99.1821 24.1989C99.0882 24.2941 98.9747 24.3417 98.8413 24.3417ZM105.98 29.1288C105.872 29.1288 105.78 29.0937 105.706 29.0236C105.637 28.9484 105.602 28.8558 105.602 28.7455V26.5962C105.602 26.2806 105.526 26.0476 105.373 25.8973C105.22 25.742 105.02 25.6643 104.773 25.6643C104.516 25.6643 104.304 25.7545 104.136 25.9349C103.973 26.1152 103.891 26.3457 103.891 26.6263H103.277C103.277 26.3006 103.346 26.015 103.484 25.7695C103.622 25.519 103.815 25.3236 104.062 25.1833C104.314 25.0431 104.6 24.9729 104.921 24.9729C105.202 24.9729 105.452 25.0355 105.669 25.1608C105.886 25.2861 106.054 25.4714 106.173 25.7169C106.296 25.9574 106.358 26.2505 106.358 26.5962V28.7455C106.358 28.8558 106.323 28.9484 106.254 29.0236C106.185 29.0937 106.094 29.1288 105.98 29.1288ZM101.039 29.1288C100.931 29.1288 100.839 29.0937 100.765 29.0236C100.696 28.9484 100.662 28.8558 100.662 28.7455V25.4013C100.662 25.2861 100.696 25.1934 100.765 25.1232C100.839 25.0531 100.931 25.018 101.039 25.018C101.153 25.018 101.244 25.0531 101.314 25.1232C101.383 25.1934 101.417 25.2861 101.417 25.4013V28.7455C101.417 28.8558 101.383 28.9484 101.314 29.0236C101.244 29.0937 101.153 29.1288 101.039 29.1288ZM103.514 29.1288C103.405 29.1288 103.314 29.0937 103.239 29.0236C103.17 28.9484 103.136 28.8558 103.136 28.7455V26.5962C103.136 26.2806 103.059 26.0476 102.906 25.8973C102.753 25.742 102.553 25.6643 102.306 25.6643C102.049 25.6643 101.837 25.7545 101.669 25.9349C101.501 26.1152 101.417 26.3457 101.417 26.6263H100.951C100.951 26.3006 101.015 26.015 101.143 25.7695C101.272 25.519 101.449 25.3236 101.677 25.1833C101.904 25.0431 102.163 24.9729 102.454 24.9729C102.736 24.9729 102.985 25.0355 103.202 25.1608C103.42 25.2861 103.588 25.4714 103.706 25.7169C103.83 25.9574 103.891 26.2505 103.891 26.5962V28.7455C103.891 28.8558 103.857 28.9484 103.788 29.0236C103.718 29.0937 103.627 29.1288 103.514 29.1288ZM108.028 30.8798C107.919 30.8798 107.828 30.8423 107.754 30.7671C107.685 30.697 107.65 30.6068 107.65 30.4966V27.0697C107.655 26.6739 107.747 26.3181 107.924 26.0025C108.102 25.6869 108.344 25.4389 108.65 25.2585C108.956 25.0731 109.302 24.9804 109.687 24.9804C110.077 24.9804 110.426 25.0731 110.732 25.2585C111.038 25.4389 111.28 25.6869 111.458 26.0025C111.64 26.3181 111.732 26.6739 111.732 27.0697C111.732 27.4654 111.648 27.8212 111.48 28.1368C111.317 28.4474 111.092 28.6954 110.806 28.8808C110.519 29.0612 110.196 29.1513 109.835 29.1513C109.544 29.1513 109.275 29.0912 109.028 28.971C108.786 28.8457 108.579 28.6779 108.406 28.4675V30.4966C108.406 30.6068 108.371 30.697 108.302 30.7671C108.233 30.8423 108.142 30.8798 108.028 30.8798ZM109.687 28.475C109.939 28.475 110.164 28.4149 110.361 28.2946C110.559 28.1694 110.714 28.0015 110.828 27.7911C110.947 27.5757 111.006 27.3352 111.006 27.0697C111.006 26.7991 110.947 26.5586 110.828 26.3482C110.714 26.1328 110.559 25.9649 110.361 25.8447C110.164 25.7194 109.939 25.6568 109.687 25.6568C109.44 25.6568 109.216 25.7194 109.013 25.8447C108.816 25.9649 108.66 26.1328 108.547 26.3482C108.433 26.5586 108.376 26.7991 108.376 27.0697C108.376 27.3352 108.433 27.5757 108.547 27.7911C108.66 28.0015 108.816 28.1694 109.013 28.2946C109.216 28.4149 109.44 28.475 109.687 28.475ZM114.585 29.1513C114.224 29.1513 113.901 29.0612 113.614 28.8808C113.328 28.6954 113.101 28.4474 112.933 28.1368C112.77 27.8212 112.688 27.4654 112.688 27.0697C112.688 26.6739 112.777 26.3181 112.955 26.0025C113.138 25.6869 113.382 25.4389 113.688 25.2585C113.999 25.0731 114.348 24.9804 114.733 24.9804C115.118 24.9804 115.464 25.0731 115.77 25.2585C116.076 25.4389 116.318 25.6869 116.496 26.0025C116.678 26.3181 116.77 26.6739 116.77 27.0697H116.481C116.481 27.4654 116.397 27.8212 116.229 28.1368C116.066 28.4474 115.841 28.6954 115.555 28.8808C115.268 29.0612 114.945 29.1513 114.585 29.1513ZM114.733 28.475C114.985 28.475 115.209 28.4149 115.407 28.2946C115.604 28.1694 115.76 28.0015 115.873 27.7911C115.987 27.5757 116.044 27.3352 116.044 27.0697C116.044 26.7991 115.987 26.5586 115.873 26.3482C115.76 26.1328 115.604 25.9649 115.407 25.8447C115.209 25.7194 114.985 25.6568 114.733 25.6568C114.486 25.6568 114.261 25.7194 114.059 25.8447C113.861 25.9649 113.703 26.1328 113.585 26.3482C113.471 26.5586 113.414 26.7991 113.414 27.0697C113.414 27.3352 113.471 27.5757 113.585 27.7911C113.703 28.0015 113.861 28.1694 114.059 28.2946C114.261 28.4149 114.486 28.475 114.733 28.475ZM116.392 29.1288C116.283 29.1288 116.192 29.0937 116.118 29.0236C116.049 28.9484 116.014 28.8558 116.014 28.7455V27.5957L116.155 26.7991L116.77 27.0697V28.7455C116.77 28.8558 116.733 28.9484 116.659 29.0236C116.589 29.0937 116.501 29.1288 116.392 29.1288ZM119.768 29.1513C119.373 29.1513 119.02 29.0612 118.709 28.8808C118.403 28.6954 118.161 28.4474 117.983 28.1368C117.81 27.8212 117.724 27.4654 117.724 27.0697C117.724 26.6638 117.81 26.3031 117.983 25.9875C118.156 25.6718 118.393 25.4263 118.694 25.251C118.996 25.0706 119.341 24.9804 119.731 24.9804C120.023 24.9804 120.289 25.0381 120.531 25.1533C120.773 25.2635 120.991 25.4313 121.183 25.6568C121.252 25.737 121.277 25.8196 121.257 25.9048C121.238 25.99 121.183 26.0651 121.094 26.1303C121.025 26.1804 120.949 26.1979 120.865 26.1829C120.781 26.1628 120.704 26.1177 120.635 26.0476C120.393 25.7871 120.092 25.6568 119.731 25.6568C119.48 25.6568 119.257 25.7169 119.065 25.8372C118.872 25.9524 118.722 26.1152 118.613 26.3257C118.504 26.5361 118.45 26.7841 118.45 27.0697C118.45 27.3402 118.504 27.5807 118.613 27.7911C118.727 28.0015 118.882 28.1694 119.08 28.2946C119.277 28.4149 119.507 28.475 119.768 28.475C119.941 28.475 120.092 28.4549 120.22 28.4149C120.354 28.3698 120.475 28.3021 120.583 28.212C120.662 28.1468 120.744 28.1118 120.828 28.1067C120.912 28.0967 120.986 28.1193 121.05 28.1744C121.134 28.2445 121.181 28.3247 121.191 28.4149C121.201 28.5 121.171 28.5777 121.102 28.6478C120.746 28.9835 120.302 29.1513 119.768 29.1513ZM123.891 29.1213C123.644 29.1213 123.422 29.0587 123.225 28.9334C123.027 28.8031 122.872 28.6278 122.758 28.4073C122.644 28.1869 122.588 27.9389 122.588 27.6633V24.0786C122.588 23.9684 122.622 23.8782 122.691 23.8081C122.76 23.7379 122.849 23.7029 122.958 23.7029C123.067 23.7029 123.156 23.7379 123.225 23.8081C123.294 23.8782 123.328 23.9684 123.328 24.0786V27.6633C123.328 27.8638 123.383 28.0316 123.491 28.1669C123.6 28.3021 123.733 28.3698 123.891 28.3698H124.143C124.232 28.3698 124.306 28.4048 124.365 28.475C124.43 28.5451 124.462 28.6353 124.462 28.7455C124.462 28.8558 124.42 28.9459 124.336 29.0161C124.257 29.0862 124.153 29.1213 124.025 29.1213H123.891ZM122.247 25.8071C122.143 25.8071 122.059 25.777 121.995 25.7169C121.931 25.6568 121.899 25.5817 121.899 25.4915C121.899 25.3913 121.931 25.3111 121.995 25.251C122.059 25.1909 122.143 25.1608 122.247 25.1608H123.958C124.062 25.1608 124.146 25.1909 124.21 25.251C124.274 25.3111 124.306 25.3913 124.306 25.4915C124.306 25.5817 124.274 25.6568 124.21 25.7169C124.146 25.777 124.062 25.8071 123.958 25.8071H122.247Z"
											fill="#323845"
										/>
									</g>
									<defs>
										<clipPath id="clip0_7_198">
											<rect width="125" height="31" fill="white" />
										</clipPath>
									</defs>
								</svg>